# xmcd
#
# Track frame offsets:
#  150
#  19052
#  33799
#  45848
#  70053
#  88665
#  107137
#  126134
#  143769
#  154585
#  167475
#
# Disc length: 2535 seconds
#
# Revision: 0
# Processed by: cddbd v1.5.1PL2 Copyright (c) Steve Scherf et al.
# Submitted via: Collectorz.com_Music_Collector 6.10
#
DISCID=7d09e50b
DTITLE=Brooks, Garth - Fresh Horses
DYEAR=2000
DGENRE=Country
TTITLE0=The Old Stuff
TTITLE1=Cowboys And Angels
TTITLE2=The Fever
TTITLE3=That Old Wind
TTITLE4=Rollin'
TTITLE5=The Change
TTITLE6=The Beaches Of Cheyenne
TTITLE7=To Make You Feel My Love
TTITLE8=It's Midnight Cinderella
TTITLE9=She's Every Woman
TTITLE10=Ireland
EXTD=
EXTT0=
EXTT1=
EXTT2=
EXTT3=
EXTT4=
EXTT5=
EXTT6=
EXTT7=
EXTT8=
EXTT9=
EXTT10=
PLAYORDER=
